PathFileType	4	(X/Y/Z)	pose_F01_0-96.trc
DataRate	CameraRate	NumFrames	NumMarkers	Units	OrigDataRate	OrigDataStartFrame	OrigNumFrames
30	30	15	21	m	30	16	96
Frame#	Time	CHip			RHip			RKnee			RAnkle			RBigToe			RSmallToe			RHeel			LHip			LKnee			LAnkle			LBigToe			LSmallToe			LHeel			Neck			Nose			RShoulder			RElbow			RWrist			LShoulder			LElbow			LWrist			
		X1	Y1	Z1	X2	Y2	Z2	X3	Y3	Z3	X4	Y4	Z4	X5	Y5	Z5	X6	Y6	Z6	X7	Y7	Z7	X8	Y8	Z8	X9	Y9	Z9	X10	Y10	Z10	X11	Y11	Z11	X12	Y12	Z12	X13	Y13	Z13	X14	Y14	Z14	X15	Y15	Z15	X16	Y16	Z16	X17	Y17	Z17	X18	Y18	Z18	X19	Y19	Z19	X20	Y20	Z20	X21	Y21	Z21	
16	0.5333333333333333	-0.2390114934965701	1.8322876773053616	-0.564000228562987	-0.255794344311383	1.8323114379197591	-0.5021535201960485																-0.22086619954138098	1.836320850906693	-0.6258992606991745	-0.22319007474665611	1.6902681243095217	-0.6053387697029127													-0.23533086046359128	1.996661017855249	-0.5949221406325305	-0.22166358208705034	2.053541976716094	-0.5454763514457605	-0.2596642282637725	1.9933744540483587	-0.4964358822801572	-0.2703120063180628	1.9222445326926452	-0.4283219710358708	-1.7887499030421987	1.8846642911246183	1.2424117223147662	-0.2070962173478132	1.9991581491926453	-0.6899529955879921	-1.2363823796371949	1.8261487631990048	0.3266820012002565	-0.18912069200490583	1.834595482475773	-0.6801744118596375
17	0.5666666666666667	-0.2390114934965701	1.8322876773053616	-0.564000228562987	-0.255794344311383	1.8323114379197591	-0.5021535201960485																-0.22086619954138098	1.836320850906693	-0.6258992606991745	-0.22319007474665611	1.6902681243095217	-0.6053387697029127													-0.23533086046359128	1.996661017855249	-0.5949221406325305	-0.22166358208705034	2.053541976716094	-0.5454763514457605	-0.2596642282637725	1.9933744540483587	-0.4964358822801572	-0.2703120063180628	1.9222445326926452	-0.4283219710358708	-1.7887499030421987	1.8846642911246183	1.2424117223147662	-0.2070962173478132	1.9991581491926453	-0.6899529955879921	-1.2363823796371949	1.8261487631990048	0.3266820012002565	-0.18912069200490583	1.834595482475773	-0.6801744118596375
18	0.6	-0.2399777439134452	1.829873199317503	-0.5667394120290945	-0.2569451174461137	1.8285005583365508	-0.5046668879538059																-0.22169212626213666	1.8326390209937709	-0.6286334434538617	-0.22641359356631588	1.6889603617385662	-0.619245385030908													-0.23849072420363993	1.99805688264196	-0.5962710672419386	-0.22377192763998277	2.048614983729288	-0.5418145860126397	-0.26472874279206665	1.996529341187403	-0.5046343124415228	-0.28356857593541956	1.9210659262275203	-0.4273385489686496	-0.2719641393857641	1.9751417627482457	-0.45421285841887404	-0.20924319130377736	2.0014557090540563	-0.6881354929188562	-1.2286982456738502	1.8271933004441379	0.31288376258355005	-0.17536903821113375	1.8495957178284719	-0.6634698497515471
19	0.6333333333333333	-0.23999477707221972	1.8336203090962364	-0.5794832320841284	-0.2562409909165597	1.832058894611671	-0.5144571905754085																-0.22190754454947037	1.8364118220265466	-0.6412383295277397	-0.23222208681513948	1.6912644576621119	-0.6302811670094719													-0.23913063574442275	1.9972067396820399	-0.6075946861164973	-0.22692489412643346	2.0465210220844052	-0.5429151697120527	-0.2676051141029361	1.9967847347050345	-0.5222720348055547	-0.2846948839656789	1.927741602438927	-0.4342379819472459	-0.2617289767931632	1.9829199937251887	-0.48279811385523813	-0.2100146848845117	2.0016417515034113	-0.6912791753522611	-1.2257119891913386	1.8336123558060904	0.30431369548475656	-0.1757157504679531	1.8664173653733074	-0.6746624259169981
20	0.6666666666666666	-0.24367147456919644	1.8320653474224013	-0.5886858819709441	-0.26094821029024956	1.8307284516060116	-0.5269896108189858																-0.2272974121342856	1.8320465410867128	-0.6478987810018954	-0.23220831236810444	1.6872366577230915	-0.6303342644948486													-0.2398124807378932	1.9974925637519472	-0.6191740266024214	-0.2309473104597025	2.0431517574374993	-0.5467325048567169	-0.26674129106317096	1.9959277206863733	-0.5362643269268361	-0.2779514810014091	1.927851778027364	-0.45448635272937965	-0.2562204733122395	1.9865207022341977	-0.5008062954926167	-0.2096260725817537	2.0004215602502766	-0.699276256857162	-1.2170577737496582	1.8359050081415031	0.2891070095425521	-0.1738236970933481	1.8786168122602995	-0.6493987398771913
21	0.7	-0.24591984688043944	1.8365186692522426	-0.5990322412227926	-0.2614580510525036	1.835401720079739	-0.5395900044342679																-0.22872189699926188	1.838151176222399	-0.6551705009262473	-0.2317384843114128	1.689568317845001	-0.6352543050210686													-0.2395168864845527	1.998176976682223	-0.6276374367579152	-0.23105606174916518	2.0436288127229716	-0.5556364399371062	-0.2677567024991912	1.9952086969199587	-0.5479502167643017	-0.2770244849784484	1.9177059936521974	-0.4670619120765594	-0.25356492855224727	1.9865570393817849	-0.5089316151608564	-0.20908641739510286	2.000524397808839	-0.7077963142596768	-1.2171868660442715	1.8393971738299828	0.29462182500438283	-0.19128634519538884	1.8980060858617187	-0.6167381662746352
22	0.7333333333333333	-0.24328006413347228	1.8384638230554884	-0.6067349326817044	-0.26072614652391896	1.8372078425005565	-0.5453410131801805																-0.22656441299855756	1.8395292971492068	-0.6659632808439884	-0.2312686562547212	1.6918999779669104	-0.6401743455472887													-0.23616445723217327	2.0010306639630286	-0.635572366574596	-0.23276660326871318	2.0437077749961383	-0.5614483531782386	-0.26140754006351	1.9973765270564532	-0.5629715135924281	-0.27010682954909526	1.926758743459865	-0.4803398360073596	-0.25451042940738405	1.9842535575429145	-0.5202274966035266	-0.20754713391625373	2.0048101034328867	-0.7132981574729746	-1.2171939587545189	1.8428655889567598	0.28907867616529137	-0.19649518715801248	1.9173844727006835	-0.6213891056938654
23	0.7666666666666667	-0.23979705446969315	1.835945301632066	-0.6140065972952531	-0.25731987321718824	1.8343982291059786	-0.5526079309995199																-0.2227885846942906	1.8372777350539073	-0.6735082606982354	-0.23079882819802958	1.6942316380888198	-0.6450943860735087													-0.2359284656466461	1.9987703779783255	-0.6438305074034567	-0.2316952807285551	2.043534520662676	-0.5668351291067114	-0.2643660627053252	1.9968423201437255	-0.5724661703335839	-0.2683929094851166	1.9297566287085823	-0.4918123165265219	-0.2477592206729494	1.9885582487076117	-0.5348858109582055	-0.2064103371050848	2.0022783404429867	-0.7188843937374687	-1.214768080783889	1.838410918323886	0.3001656446605439	-0.20158309769554372	1.9272754385227064	-0.6327781479884304
24	0.8	-0.24105066239210204	1.84013384727173	-0.6176801490551987	-0.2567315444986374	1.8401564884863342	-0.5585957074553712																-0.22189802824419455	1.8409718467069236	-0.6792155445548381	-0.23304689873982481	1.6985938028349161	-0.6430030165080981													-0.235540504315278	2.0013097633663426	-0.652570156280481	-0.2345684317440771	2.0428218659877935	-0.5761836288310145	-0.26325920498866967	1.9995133638141351	-0.578120285309348	-0.2705007896603467	1.930080065610791	-0.498267668278012	-0.24592793052517448	1.9891899539798947	-0.5205579386055977	-0.20575704917038776	2.003871250691876	-0.727192139805963	-1.1896683189803012	1.8384796643320935	0.2589314902635515	-0.20965573652604805	1.9412800444235034	-0.6258204208658232
25	0.8333333333333334	-0.2400904380123782	1.839699277536199	-0.6145337797212556	-0.25562391609489077	1.8383239105974536	-0.5553722266284777																-0.22098297414654944	1.8409126274718266	-0.6760298561815852	-0.23096972159009674	1.699094552052205	-0.6450488535739535													-0.23638073423287723	2.0000588867836737	-0.65534762056435	-0.23447575611598445	2.043087508923728	-0.5846596699905797	-0.26098536132928085	1.9979819782610653	-0.5795164924800436	-0.27491041719942755	1.943281838705716	-0.522282154746229	-1.6366314286359427	1.8730088738975472	0.9763912988282863	-0.20748605219664334	2.004515248969311	-0.7332314926204194	-1.192815106101095	1.8362947700372418	0.26125878357927773	-0.202726311631718	1.9515633963002674	-0.6338612430739394
26	0.8666666666666667	-0.23911950251928038	1.8382003060776673	-0.6148385348593778	-0.2546171220786814	1.8362781937320753	-0.5555203491672772																-0.22104883402633269	1.8379532628182358	-0.6793395753009823	-0.23066314279395506	1.6968597159639944	-0.645284975220985													-0.23508896759363476	2.000774951760294	-0.6605875693965868	-0.23730329671582276	2.043020927654786	-0.5939765940943182	-0.25875941724596024	1.9967637495885457	-0.5813897342302361	-0.2782862019514976	1.9336883310962847	-0.5148726722844659	-0.9533356511425217	1.8927033217059877	0.2851676068625282	-0.2077216264338917	2.00423956132792	-0.7442553334901687	-1.2056297515189647	1.8340751404446347	0.26759128731535925	-1.4310580452762014	1.8515891245473113	0.6602349772051193
27	0.9	-0.24680239949024546	1.8386987266161676	-0.6111417886047182	-0.2625041538620837	1.8367553097096987	-0.55162758999337																-0.23024388325731063	1.8384332783282407	-0.6701355852541178	-0.2318149659954477	1.6976653903682295	-0.6399344776954													-0.24184174209142864	1.9964810429531037	-0.6534817878238969	-0.2353163620635295	2.041885720321865	-0.5964026416466034	-0.2664114441016585	1.9946558566259311	-0.5698197457585775	-0.2845422578700804	1.9198597319289041	-0.5069276700460696	-0.2700398736491008	1.9123977695144283	-0.40605608510323005	-0.21255826367678093	1.9988570773351535	-0.739630018958361	-1.1739072990286814	1.8297290652989873	0.2136412926828888	-0.8041763650517915	1.8851959380624956	-0.03000785816107654
28	0.9333333333333333	-0.25087590580233177	1.8343844575038402	-0.6148500234869446	-0.26459027563777376	1.83294206570211	-0.5491165390554944																-0.2342037111978427	1.8369211227899243	-0.6742452554524054	-0.2329667891969404	1.6984710647724646	-0.634583980169815													-0.2431172286759318	1.9951128525967623	-0.6478713655270273	-0.2352495148967036	2.041625294399608	-0.5957871902615097	-0.26852534715437165	1.9912764445106146	-0.5583766446145204	-0.28187369562388825	1.922834364294328	-0.50092439222325	-0.2783487687054132	1.8954722070464416	-0.40017461673030863	-0.21990806515887143	1.9982909447764154	-0.7356776918889515	-1.1619081669568991	1.828406069192443	0.17543812287349173	-0.17729468482738148	1.9188027515776802	-0.7202506935272724
29	0.9666666666666667	-0.25688744771987215	1.835945934706866	-0.617170482726768	-0.2686115579558282	1.8354515426192566	-0.5536347007500053																-0.23829434445008812	1.8383278791937776	-0.6784576471204294	-0.23423766428131693	1.7072336837239281	-0.6382191897884247													-0.24530182261598033	1.9959494670645073	-0.6460367989459309	-0.23528464499929516	2.041690835511089	-0.595828985665301	-0.2706946515315172	1.9924053323614679	-0.5565056217361093	-0.28165586871315446	1.9267251506033363	-0.5013606677445861	-0.2798541484954854	1.8937602480460964	-0.41223024510935047	-0.22231301268889186	1.9978960053712433	-0.7337253167442915	-1.1488746260848783	1.8278400414919118	0.14716361955620083	-1.241266365124771	1.835924369793892	0.3521607469204175
30	1.0	-0.25602819493846585	1.8385345783371234	-0.6228184353030893	-0.27192209828343733	1.8360393789420524	-0.5633026890669046																-0.23817335436035442	1.8408331198825438	-0.6871090258265885	-0.23437336616051815	1.7115457529988833	-0.6595367334386539													-0.24923239322538238	1.9950014996365368	-0.6496587090552339	-0.2351687291855381	2.041031563112669	-0.6043133093079616	-0.27378268950776774	1.9902186591518627	-0.5570911974675462	-0.2849313787132614	1.9267411333385194	-0.502328425034567	-0.2830259903823063	1.8939475764037101	-0.42218858743500487	-0.2248937162180069	1.9995334665620732	-0.7426635172858571	-1.169412917394266	1.831079489974435	0.17394073332686	-0.19826435877112206	1.9563147169993325	-0.7300797204991746
